<?xml version="1.0" encoding="iso-8859-1"?>
<!-- Generator: Adobe Illustrator 21.0.0, SVG Export Plug-In . SVG Version: 6.00 Build 0)  -->
<svg xmlns="http://www.w3.org/2000/svg" xmlns:xlink="http://www.w3.org/1999/xlink" version="1.1" id="Capa_1" x="0px" y="0px" viewBox="0 0 511.34 511.34" style="enable-background:new 0 0 511.34 511.34;" xml:space="preserve" width="512" height="512">
<g id="XMLID_195_">
	<path id="XMLID_183_" style="fill:#DCE1EB;" d="M470.67,398h-430c-8.284,0-15,6.716-15,15v42c0,31.066,25.27,56.34,56.33,56.34   h347.34c31.061,0,56.33-25.274,56.33-56.34v-42C485.67,404.716,478.954,398,470.67,398z"/>
	<path id="XMLID_114_" style="fill:#C9F460;" d="M429.34,0H82C50.939,0,25.67,25.274,25.67,56.34V413c0,8.284,6.716,15,15,15h430   c8.284,0,15-6.716,15-15V56.34C485.67,25.274,460.4,0,429.34,0z"/>
	<path id="XMLID_1331_" style="fill:#A1DB23;" d="M429.33,0H255.67v428h230V56.34C485.67,25.224,460.446,0,429.33,0z"/>
	<path id="XMLID_293_" style="fill:#9196AA;" d="M255.67,480.88c-8.284,0-15-6.716-15-15v-1.417c0-8.284,6.716-15,15-15   s15,6.716,15,15v1.417C270.67,474.164,263.954,480.88,255.67,480.88z"/>
	<path id="XMLID_306_" style="fill:#9196AA;" d="M167.337,60.003H96.004c-8.284,0-15,6.716-15,15v64c0,8.284,6.716,15,15,15h71.333   c8.284,0,15-6.716,15-15v-64C182.337,66.719,175.622,60.003,167.337,60.003z"/>
	<path id="XMLID_287_" style="fill:#9196AA;" d="M291.336,60.003h-71.333c-8.284,0-15,6.716-15,15v64c0,8.284,6.716,15,15,15h71.333   c8.284,0,15-6.716,15-15v-64C306.336,66.719,299.621,60.003,291.336,60.003z"/>
	<path id="XMLID_224_" style="fill:#707789;" d="M415.336,60.003h-71.333c-8.284,0-15,6.716-15,15v64c0,8.284,6.716,15,15,15h71.333   c8.284,0,15-6.716,15-15v-64C430.336,66.719,423.62,60.003,415.336,60.003z"/>
	<rect id="XMLID_212_" x="25.67" y="288" style="fill:#0B7FB2;" width="460" height="140"/>
	<path id="XMLID_227_" style="fill:#DCE1EB;" d="M333,254v98c0,8.29-6.71,15-15,15H193.34c-8.29,0-15-6.71-15-15v-98   c0-8.28,6.71-15,15-15H318C326.29,239,333,245.72,333,254z"/>
	<path id="XMLID_225_" style="fill:#FF583E;" d="M352.167,241.421l-88.333-57.311c-4.966-3.222-11.362-3.222-16.328,0   l-88.333,57.311c-5.574,3.617-8.105,10.469-6.219,16.841c1.886,6.371,7.739,10.743,14.383,10.743h176.665   c6.645,0,12.498-4.372,14.383-10.743C360.271,251.89,357.741,245.038,352.167,241.421z"/>
	<path id="XMLID_223_" style="fill:#DC934B;" d="M270.67,316.07V367h-30v-50.93c0-8.28,6.72-15,15-15   C263.95,301.07,270.67,307.79,270.67,316.07z"/>
	<path id="XMLID_1332_" style="fill:#AFB4C8;" d="M470.67,398h-215v113.34h173.67c31.061,0,56.33-25.274,56.33-56.34v-42   C485.67,404.716,478.954,398,470.67,398z"/>
	<rect id="XMLID_1333_" x="255.67" y="288" style="fill:#085584;" width="230" height="140"/>
	<path id="XMLID_1336_" style="fill:#AFB4C8;" d="M318,239h-62.33v128H318c8.29,0,15-6.71,15-15v-98C333,245.72,326.29,239,318,239z   "/>
	<path id="XMLID_1337_" style="fill:#707789;" d="M291.336,60.003H255.67v94h35.667c8.284,0,15-6.716,15-15v-64   C306.336,66.719,299.621,60.003,291.336,60.003z"/>
	<path id="XMLID_1338_" style="fill:#F03049;" d="M352.167,241.421l-88.333-57.311c-2.483-1.611-5.323-2.416-8.164-2.416v87.311   h88.333c6.645,0,12.498-4.372,14.383-10.743C360.271,251.89,357.741,245.038,352.167,241.421z"/>
	<path id="XMLID_858_" style="fill:#C7732E;" d="M255.67,301.07V367h15v-50.93C270.67,307.79,263.95,301.07,255.67,301.07z"/>
	<path id="XMLID_1375_" style="fill:#707789;" d="M255.67,449.463v31.417c8.284,0,15-6.716,15-15v-1.417   C270.67,456.178,263.954,449.463,255.67,449.463z"/>
</g>















</svg>
