<?xml version="1.0" encoding="UTF-8"?>
<svg xmlns="http://www.w3.org/2000/svg" xmlns:xlink="http://www.w3.org/1999/xlink" width="48pt" height="48pt" viewBox="0 0 48 48" version="1.1">
<g id="surface1">
<path style=" stroke:none;fill-rule:nonzero;fill:rgb(86.27451%,88.235294%,92.156863%);fill-opacity:1;" d="M 44.183594 37.359375 L 3.816406 37.359375 C 3.039062 37.359375 2.410156 37.992188 2.410156 38.769531 L 2.410156 42.710938 C 2.410156 45.628906 4.78125 48 7.699219 48 L 40.300781 48 C 43.21875 48 45.589844 45.628906 45.589844 42.710938 L 45.589844 38.769531 C 45.589844 37.992188 44.960938 37.359375 44.183594 37.359375 Z M 44.183594 37.359375 "/>
<path style=" stroke:none;fill-rule:nonzero;fill:rgb(78.823529%,95.686275%,37.647059%);fill-opacity:1;" d="M 40.300781 0 L 7.699219 0 C 4.78125 0 2.410156 2.371094 2.410156 5.289062 L 2.410156 38.769531 C 2.410156 39.546875 3.039062 40.175781 3.816406 40.175781 L 44.183594 40.175781 C 44.960938 40.175781 45.589844 39.546875 45.589844 38.769531 L 45.589844 5.289062 C 45.589844 2.371094 43.21875 0 40.300781 0 Z M 40.300781 0 "/>
<path style=" stroke:none;fill-rule:nonzero;fill:rgb(63.137255%,85.882353%,13.72549%);fill-opacity:1;" d="M 40.300781 0 L 24 0 L 24 40.175781 L 45.589844 40.175781 L 45.589844 5.289062 C 45.589844 2.367188 43.222656 0 40.300781 0 Z M 40.300781 0 "/>
<path style=" stroke:none;fill-rule:nonzero;fill:rgb(56.862745%,58.823529%,66.666667%);fill-opacity:1;" d="M 24 45.140625 C 23.222656 45.140625 22.59375 44.511719 22.59375 43.734375 L 22.59375 43.597656 C 22.59375 42.820312 23.222656 42.191406 24 42.191406 C 24.777344 42.191406 25.40625 42.820312 25.40625 43.597656 L 25.40625 43.734375 C 25.40625 44.511719 24.777344 45.140625 24 45.140625 Z M 24 45.140625 "/>
<path style=" stroke:none;fill-rule:nonzero;fill:rgb(56.862745%,58.823529%,66.666667%);fill-opacity:1;" d="M 15.707031 5.632812 L 9.011719 5.632812 C 8.234375 5.632812 7.605469 6.261719 7.605469 7.039062 L 7.605469 13.046875 C 7.605469 13.824219 8.234375 14.457031 9.011719 14.457031 L 15.707031 14.457031 C 16.484375 14.457031 17.117188 13.824219 17.117188 13.046875 L 17.117188 7.039062 C 17.117188 6.261719 16.484375 5.632812 15.707031 5.632812 Z M 15.707031 5.632812 "/>
<path style=" stroke:none;fill-rule:nonzero;fill:rgb(56.862745%,58.823529%,66.666667%);fill-opacity:1;" d="M 27.347656 5.632812 L 20.652344 5.632812 C 19.875 5.632812 19.242188 6.261719 19.242188 7.039062 L 19.242188 13.046875 C 19.242188 13.824219 19.875 14.457031 20.652344 14.457031 L 27.347656 14.457031 C 28.125 14.457031 28.757812 13.824219 28.757812 13.046875 L 28.757812 7.039062 C 28.757812 6.261719 28.125 5.632812 27.347656 5.632812 Z M 27.347656 5.632812 "/>
<path style=" stroke:none;fill-rule:nonzero;fill:rgb(43.921569%,46.666667%,53.72549%);fill-opacity:1;" d="M 38.988281 5.632812 L 32.292969 5.632812 C 31.515625 5.632812 30.882812 6.261719 30.882812 7.039062 L 30.882812 13.046875 C 30.882812 13.824219 31.515625 14.457031 32.292969 14.457031 L 38.988281 14.457031 C 39.765625 14.457031 40.394531 13.824219 40.394531 13.046875 L 40.394531 7.039062 C 40.394531 6.261719 39.765625 5.632812 38.988281 5.632812 Z M 38.988281 5.632812 "/>
<path style=" stroke:none;fill-rule:nonzero;fill:rgb(4.313725%,49.803922%,69.803922%);fill-opacity:1;" d="M 2.410156 27.035156 L 45.589844 27.035156 L 45.589844 40.175781 L 2.410156 40.175781 Z M 2.410156 27.035156 "/>
<path style=" stroke:none;fill-rule:nonzero;fill:rgb(86.27451%,88.235294%,92.156863%);fill-opacity:1;" d="M 31.257812 23.84375 L 31.257812 33.042969 C 31.257812 33.820312 30.628906 34.449219 29.851562 34.449219 L 18.148438 34.449219 C 17.371094 34.449219 16.742188 33.820312 16.742188 33.042969 L 16.742188 23.84375 C 16.742188 23.066406 17.371094 22.433594 18.148438 22.433594 L 29.851562 22.433594 C 30.628906 22.433594 31.257812 23.066406 31.257812 23.84375 Z M 31.257812 23.84375 "/>
<path style=" stroke:none;fill-rule:nonzero;fill:rgb(100%,34.509804%,24.313725%);fill-opacity:1;" d="M 33.058594 22.664062 L 24.765625 17.28125 C 24.300781 16.980469 23.699219 16.980469 23.234375 17.28125 L 14.941406 22.664062 C 14.417969 23.003906 14.179688 23.644531 14.359375 24.242188 C 14.535156 24.839844 15.085938 25.25 15.707031 25.25 L 32.292969 25.25 C 32.914062 25.25 33.464844 24.839844 33.640625 24.242188 C 33.820312 23.644531 33.582031 23.003906 33.058594 22.664062 Z M 33.058594 22.664062 "/>
<path style=" stroke:none;fill-rule:nonzero;fill:rgb(86.27451%,57.647059%,29.411765%);fill-opacity:1;" d="M 25.40625 29.667969 L 25.40625 34.449219 L 22.59375 34.449219 L 22.59375 29.667969 C 22.59375 28.890625 23.222656 28.261719 24 28.261719 C 24.777344 28.261719 25.40625 28.890625 25.40625 29.667969 Z M 25.40625 29.667969 "/>
<path style=" stroke:none;fill-rule:nonzero;fill:rgb(68.627451%,70.588235%,78.431373%);fill-opacity:1;" d="M 44.183594 37.359375 L 24 37.359375 L 24 48 L 40.300781 48 C 43.21875 48 45.589844 45.628906 45.589844 42.710938 L 45.589844 38.769531 C 45.589844 37.992188 44.960938 37.359375 44.183594 37.359375 Z M 44.183594 37.359375 "/>
<path style=" stroke:none;fill-rule:nonzero;fill:rgb(3.137255%,33.333333%,51.764706%);fill-opacity:1;" d="M 24 27.035156 L 45.589844 27.035156 L 45.589844 40.175781 L 24 40.175781 Z M 24 27.035156 "/>
<path style=" stroke:none;fill-rule:nonzero;fill:rgb(68.627451%,70.588235%,78.431373%);fill-opacity:1;" d="M 29.851562 22.433594 L 24 22.433594 L 24 34.449219 L 29.851562 34.449219 C 30.628906 34.449219 31.257812 33.820312 31.257812 33.042969 L 31.257812 23.84375 C 31.257812 23.066406 30.628906 22.433594 29.851562 22.433594 Z M 29.851562 22.433594 "/>
<path style=" stroke:none;fill-rule:nonzero;fill:rgb(43.921569%,46.666667%,53.72549%);fill-opacity:1;" d="M 27.347656 5.632812 L 24 5.632812 L 24 14.457031 L 27.347656 14.457031 C 28.125 14.457031 28.757812 13.824219 28.757812 13.046875 L 28.757812 7.039062 C 28.757812 6.261719 28.125 5.632812 27.347656 5.632812 Z M 27.347656 5.632812 "/>
<path style=" stroke:none;fill-rule:nonzero;fill:rgb(94.117647%,18.823529%,28.627451%);fill-opacity:1;" d="M 33.058594 22.664062 L 24.765625 17.28125 C 24.535156 17.132812 24.265625 17.054688 24 17.054688 L 24 25.25 L 32.292969 25.25 C 32.914062 25.25 33.464844 24.839844 33.640625 24.242188 C 33.820312 23.644531 33.582031 23.003906 33.058594 22.664062 Z M 33.058594 22.664062 "/>
<path style=" stroke:none;fill-rule:nonzero;fill:rgb(78.039216%,45.098039%,18.039216%);fill-opacity:1;" d="M 24 28.261719 L 24 34.449219 L 25.40625 34.449219 L 25.40625 29.667969 C 25.40625 28.890625 24.777344 28.261719 24 28.261719 Z M 24 28.261719 "/>
<path style=" stroke:none;fill-rule:nonzero;fill:rgb(43.921569%,46.666667%,53.72549%);fill-opacity:1;" d="M 24 42.191406 L 24 45.140625 C 24.777344 45.140625 25.40625 44.511719 25.40625 43.734375 L 25.40625 43.597656 C 25.40625 42.820312 24.777344 42.191406 24 42.191406 Z M 24 42.191406 "/>
</g>
</svg>
