<?xml version="1.0" encoding="UTF-8"?>
<svg xmlns="http://www.w3.org/2000/svg" xmlns:xlink="http://www.w3.org/1999/xlink" width="24pt" height="24pt" viewBox="0 0 24 24" version="1.1">
<g id="surface1">
<path style=" stroke:none;fill-rule:nonzero;fill:rgb(86.27451%,88.235294%,92.156863%);fill-opacity:1;" d="M 22.089844 18.679688 L 1.910156 18.679688 C 1.519531 18.679688 1.203125 18.996094 1.203125 19.382812 L 1.203125 21.355469 C 1.203125 22.8125 2.390625 24 3.847656 24 L 20.152344 24 C 21.609375 24 22.796875 22.8125 22.796875 21.355469 L 22.796875 19.382812 C 22.796875 18.996094 22.480469 18.679688 22.089844 18.679688 Z M 22.089844 18.679688 "/>
<path style=" stroke:none;fill-rule:nonzero;fill:rgb(78.823529%,95.686275%,37.647059%);fill-opacity:1;" d="M 20.152344 0 L 3.847656 0 C 2.390625 0 1.203125 1.1875 1.203125 2.644531 L 1.203125 19.382812 C 1.203125 19.773438 1.519531 20.089844 1.910156 20.089844 L 22.089844 20.089844 C 22.480469 20.089844 22.796875 19.773438 22.796875 19.382812 L 22.796875 2.644531 C 22.796875 1.1875 21.609375 0 20.152344 0 Z M 20.152344 0 "/>
<path style=" stroke:none;fill-rule:nonzero;fill:rgb(63.137255%,85.882353%,13.72549%);fill-opacity:1;" d="M 20.152344 0 L 12 0 L 12 20.089844 L 22.796875 20.089844 L 22.796875 2.644531 C 22.796875 1.183594 21.609375 0 20.152344 0 Z M 20.152344 0 "/>
<path style=" stroke:none;fill-rule:nonzero;fill:rgb(56.862745%,58.823529%,66.666667%);fill-opacity:1;" d="M 12 22.570312 C 11.609375 22.570312 11.296875 22.253906 11.296875 21.867188 L 11.296875 21.800781 C 11.296875 21.410156 11.609375 21.097656 12 21.097656 C 12.390625 21.097656 12.703125 21.410156 12.703125 21.800781 L 12.703125 21.867188 C 12.703125 22.253906 12.390625 22.570312 12 22.570312 Z M 12 22.570312 "/>
<path style=" stroke:none;fill-rule:nonzero;fill:rgb(56.862745%,58.823529%,66.666667%);fill-opacity:1;" d="M 7.855469 2.816406 L 4.507812 2.816406 C 4.117188 2.816406 3.800781 3.132812 3.800781 3.519531 L 3.800781 6.523438 C 3.800781 6.914062 4.117188 7.226562 4.507812 7.226562 L 7.855469 7.226562 C 8.242188 7.226562 8.558594 6.914062 8.558594 6.523438 L 8.558594 3.519531 C 8.558594 3.132812 8.242188 2.816406 7.855469 2.816406 Z M 7.855469 2.816406 "/>
<path style=" stroke:none;fill-rule:nonzero;fill:rgb(56.862745%,58.823529%,66.666667%);fill-opacity:1;" d="M 13.675781 2.816406 L 10.324219 2.816406 C 9.9375 2.816406 9.621094 3.132812 9.621094 3.519531 L 9.621094 6.523438 C 9.621094 6.914062 9.9375 7.226562 10.324219 7.226562 L 13.675781 7.226562 C 14.0625 7.226562 14.378906 6.914062 14.378906 6.523438 L 14.378906 3.519531 C 14.378906 3.132812 14.0625 2.816406 13.675781 2.816406 Z M 13.675781 2.816406 "/>
<path style=" stroke:none;fill-rule:nonzero;fill:rgb(43.921569%,46.666667%,53.72549%);fill-opacity:1;" d="M 19.492188 2.816406 L 16.144531 2.816406 C 15.757812 2.816406 15.441406 3.132812 15.441406 3.519531 L 15.441406 6.523438 C 15.441406 6.914062 15.757812 7.226562 16.144531 7.226562 L 19.492188 7.226562 C 19.882812 7.226562 20.199219 6.914062 20.199219 6.523438 L 20.199219 3.519531 C 20.199219 3.132812 19.882812 2.816406 19.492188 2.816406 Z M 19.492188 2.816406 "/>
<path style=" stroke:none;fill-rule:nonzero;fill:rgb(4.313725%,49.803922%,69.803922%);fill-opacity:1;" d="M 1.203125 13.515625 L 22.796875 13.515625 L 22.796875 20.089844 L 1.203125 20.089844 Z M 1.203125 13.515625 "/>
<path style=" stroke:none;fill-rule:nonzero;fill:rgb(86.27451%,88.235294%,92.156863%);fill-opacity:1;" d="M 15.628906 11.921875 L 15.628906 16.519531 C 15.628906 16.910156 15.316406 17.226562 14.925781 17.226562 L 9.074219 17.226562 C 8.683594 17.226562 8.371094 16.910156 8.371094 16.519531 L 8.371094 11.921875 C 8.371094 11.53125 8.683594 11.21875 9.074219 11.21875 L 14.925781 11.21875 C 15.316406 11.21875 15.628906 11.53125 15.628906 11.921875 Z M 15.628906 11.921875 "/>
<path style=" stroke:none;fill-rule:nonzero;fill:rgb(100%,34.509804%,24.313725%);fill-opacity:1;" d="M 16.527344 11.332031 L 12.382812 8.640625 C 12.148438 8.488281 11.851562 8.488281 11.617188 8.640625 L 7.472656 11.332031 C 7.210938 11.5 7.089844 11.824219 7.179688 12.121094 C 7.265625 12.421875 7.542969 12.625 7.855469 12.625 L 16.144531 12.625 C 16.457031 12.625 16.734375 12.421875 16.820312 12.121094 C 16.910156 11.824219 16.789062 11.5 16.527344 11.332031 Z M 16.527344 11.332031 "/>
<path style=" stroke:none;fill-rule:nonzero;fill:rgb(86.27451%,57.647059%,29.411765%);fill-opacity:1;" d="M 12.703125 14.835938 L 12.703125 17.226562 L 11.296875 17.226562 L 11.296875 14.835938 C 11.296875 14.445312 11.613281 14.132812 12 14.132812 C 12.386719 14.132812 12.703125 14.445312 12.703125 14.835938 Z M 12.703125 14.835938 "/>
<path style=" stroke:none;fill-rule:nonzero;fill:rgb(68.627451%,70.588235%,78.431373%);fill-opacity:1;" d="M 22.089844 18.679688 L 12 18.679688 L 12 24 L 20.152344 24 C 21.609375 24 22.796875 22.8125 22.796875 21.355469 L 22.796875 19.382812 C 22.796875 18.996094 22.480469 18.679688 22.089844 18.679688 Z M 22.089844 18.679688 "/>
<path style=" stroke:none;fill-rule:nonzero;fill:rgb(3.137255%,33.333333%,51.764706%);fill-opacity:1;" d="M 12 13.515625 L 22.796875 13.515625 L 22.796875 20.089844 L 12 20.089844 Z M 12 13.515625 "/>
<path style=" stroke:none;fill-rule:nonzero;fill:rgb(68.627451%,70.588235%,78.431373%);fill-opacity:1;" d="M 14.925781 11.21875 L 12 11.21875 L 12 17.226562 L 14.925781 17.226562 C 15.316406 17.226562 15.628906 16.910156 15.628906 16.519531 L 15.628906 11.921875 C 15.628906 11.53125 15.316406 11.21875 14.925781 11.21875 Z M 14.925781 11.21875 "/>
<path style=" stroke:none;fill-rule:nonzero;fill:rgb(43.921569%,46.666667%,53.72549%);fill-opacity:1;" d="M 13.675781 2.816406 L 12 2.816406 L 12 7.226562 L 13.675781 7.226562 C 14.0625 7.226562 14.378906 6.914062 14.378906 6.523438 L 14.378906 3.519531 C 14.378906 3.132812 14.0625 2.816406 13.675781 2.816406 Z M 13.675781 2.816406 "/>
<path style=" stroke:none;fill-rule:nonzero;fill:rgb(94.117647%,18.823529%,28.627451%);fill-opacity:1;" d="M 16.527344 11.332031 L 12.382812 8.640625 C 12.265625 8.566406 12.132812 8.527344 12 8.527344 L 12 12.625 L 16.144531 12.625 C 16.457031 12.625 16.734375 12.421875 16.820312 12.121094 C 16.910156 11.824219 16.789062 11.5 16.527344 11.332031 Z M 16.527344 11.332031 "/>
<path style=" stroke:none;fill-rule:nonzero;fill:rgb(78.039216%,45.098039%,18.039216%);fill-opacity:1;" d="M 12 14.132812 L 12 17.226562 L 12.703125 17.226562 L 12.703125 14.835938 C 12.703125 14.445312 12.386719 14.132812 12 14.132812 Z M 12 14.132812 "/>
<path style=" stroke:none;fill-rule:nonzero;fill:rgb(43.921569%,46.666667%,53.72549%);fill-opacity:1;" d="M 12 21.097656 L 12 22.570312 C 12.390625 22.570312 12.703125 22.253906 12.703125 21.867188 L 12.703125 21.800781 C 12.703125 21.410156 12.390625 21.097656 12 21.097656 Z M 12 21.097656 "/>
</g>
</svg>
