<?xml version="1.0" encoding="UTF-8"?>
<svg xmlns="http://www.w3.org/2000/svg" xmlns:xlink="http://www.w3.org/1999/xlink" width="128pt" height="128pt" viewBox="0 0 128 128" version="1.1">
<g id="surface1">
<path style=" stroke:none;fill-rule:nonzero;fill:rgb(86.27451%,88.235294%,92.156863%);fill-opacity:1;" d="M 117.820312 99.628906 L 10.179688 99.628906 C 8.105469 99.628906 6.425781 101.308594 6.425781 103.382812 L 6.425781 113.898438 C 6.425781 121.671875 12.75 128 20.527344 128 L 107.472656 128 C 115.25 128 121.574219 121.671875 121.574219 113.898438 L 121.574219 103.382812 C 121.574219 101.308594 119.894531 99.628906 117.820312 99.628906 Z M 117.820312 99.628906 "/>
<path style=" stroke:none;fill-rule:nonzero;fill:rgb(78.823529%,95.686275%,37.647059%);fill-opacity:1;" d="M 107.472656 0 L 20.527344 0 C 12.75 0 6.425781 6.328125 6.425781 14.101562 L 6.425781 103.382812 C 6.425781 105.457031 8.105469 107.136719 10.179688 107.136719 L 117.820312 107.136719 C 119.894531 107.136719 121.574219 105.457031 121.574219 103.382812 L 121.574219 14.101562 C 121.574219 6.328125 115.25 0 107.472656 0 Z M 107.472656 0 "/>
<path style=" stroke:none;fill-rule:nonzero;fill:rgb(63.137255%,85.882353%,13.72549%);fill-opacity:1;" d="M 107.472656 0 L 64 0 L 64 107.136719 L 121.574219 107.136719 L 121.574219 14.101562 C 121.574219 6.3125 115.261719 0 107.472656 0 Z M 107.472656 0 "/>
<path style=" stroke:none;fill-rule:nonzero;fill:rgb(56.862745%,58.823529%,66.666667%);fill-opacity:1;" d="M 64 120.375 C 61.925781 120.375 60.246094 118.695312 60.246094 116.621094 L 60.246094 116.265625 C 60.246094 114.191406 61.925781 112.511719 64 112.511719 C 66.074219 112.511719 67.753906 114.191406 67.753906 116.265625 L 67.753906 116.621094 C 67.753906 118.695312 66.074219 120.375 64 120.375 Z M 64 120.375 "/>
<path style=" stroke:none;fill-rule:nonzero;fill:rgb(56.862745%,58.823529%,66.666667%);fill-opacity:1;" d="M 41.886719 15.019531 L 24.03125 15.019531 C 21.957031 15.019531 20.277344 16.703125 20.277344 18.773438 L 20.277344 34.796875 C 20.277344 36.871094 21.957031 38.550781 24.03125 38.550781 L 41.886719 38.550781 C 43.960938 38.550781 45.644531 36.871094 45.644531 34.796875 L 45.644531 18.773438 C 45.644531 16.703125 43.960938 15.019531 41.886719 15.019531 Z M 41.886719 15.019531 "/>
<path style=" stroke:none;fill-rule:nonzero;fill:rgb(56.862745%,58.823529%,66.666667%);fill-opacity:1;" d="M 72.929688 15.019531 L 55.070312 15.019531 C 53 15.019531 51.316406 16.703125 51.316406 18.773438 L 51.316406 34.796875 C 51.316406 36.871094 53 38.550781 55.070312 38.550781 L 72.929688 38.550781 C 75 38.550781 76.683594 36.871094 76.683594 34.796875 L 76.683594 18.773438 C 76.683594 16.703125 75 15.019531 72.929688 15.019531 Z M 72.929688 15.019531 "/>
<path style=" stroke:none;fill-rule:nonzero;fill:rgb(43.921569%,46.666667%,53.72549%);fill-opacity:1;" d="M 103.96875 15.019531 L 86.113281 15.019531 C 84.039062 15.019531 82.355469 16.703125 82.355469 18.773438 L 82.355469 34.796875 C 82.355469 36.871094 84.039062 38.550781 86.113281 38.550781 L 103.96875 38.550781 C 106.042969 38.550781 107.722656 36.871094 107.722656 34.796875 L 107.722656 18.773438 C 107.722656 16.703125 106.042969 15.019531 103.96875 15.019531 Z M 103.96875 15.019531 "/>
<path style=" stroke:none;fill-rule:nonzero;fill:rgb(4.313725%,49.803922%,69.803922%);fill-opacity:1;" d="M 6.425781 72.09375 L 121.574219 72.09375 L 121.574219 107.136719 L 6.425781 107.136719 Z M 6.425781 72.09375 "/>
<path style=" stroke:none;fill-rule:nonzero;fill:rgb(86.27451%,88.235294%,92.156863%);fill-opacity:1;" d="M 83.359375 63.582031 L 83.359375 88.113281 C 83.359375 90.1875 81.679688 91.867188 79.601562 91.867188 L 48.398438 91.867188 C 46.320312 91.867188 44.640625 90.1875 44.640625 88.113281 L 44.640625 63.582031 C 44.640625 61.507812 46.320312 59.828125 48.398438 59.828125 L 79.601562 59.828125 C 81.679688 59.828125 83.359375 61.507812 83.359375 63.582031 Z M 83.359375 63.582031 "/>
<path style=" stroke:none;fill-rule:nonzero;fill:rgb(100%,34.509804%,24.313725%);fill-opacity:1;" d="M 88.15625 60.433594 L 66.042969 46.085938 C 64.800781 45.28125 63.199219 45.28125 61.957031 46.085938 L 39.84375 60.433594 C 38.449219 61.339844 37.816406 63.054688 38.289062 64.648438 C 38.761719 66.242188 40.226562 67.339844 41.886719 67.339844 L 86.113281 67.339844 C 87.773438 67.339844 89.238281 66.242188 89.710938 64.648438 C 90.183594 63.054688 89.550781 61.339844 88.15625 60.433594 Z M 88.15625 60.433594 "/>
<path style=" stroke:none;fill-rule:nonzero;fill:rgb(86.27451%,57.647059%,29.411765%);fill-opacity:1;" d="M 67.753906 79.121094 L 67.753906 91.867188 L 60.246094 91.867188 L 60.246094 79.121094 C 60.246094 77.046875 61.925781 75.363281 64 75.363281 C 66.074219 75.363281 67.753906 77.046875 67.753906 79.121094 Z M 67.753906 79.121094 "/>
<path style=" stroke:none;fill-rule:nonzero;fill:rgb(68.627451%,70.588235%,78.431373%);fill-opacity:1;" d="M 117.820312 99.628906 L 64 99.628906 L 64 128 L 107.472656 128 C 115.25 128 121.574219 121.671875 121.574219 113.898438 L 121.574219 103.382812 C 121.574219 101.308594 119.894531 99.628906 117.820312 99.628906 Z M 117.820312 99.628906 "/>
<path style=" stroke:none;fill-rule:nonzero;fill:rgb(3.137255%,33.333333%,51.764706%);fill-opacity:1;" d="M 64 72.09375 L 121.574219 72.09375 L 121.574219 107.136719 L 64 107.136719 Z M 64 72.09375 "/>
<path style=" stroke:none;fill-rule:nonzero;fill:rgb(68.627451%,70.588235%,78.431373%);fill-opacity:1;" d="M 79.601562 59.828125 L 64 59.828125 L 64 91.867188 L 79.601562 91.867188 C 81.679688 91.867188 83.359375 90.1875 83.359375 88.113281 L 83.359375 63.582031 C 83.359375 61.507812 81.679688 59.828125 79.601562 59.828125 Z M 79.601562 59.828125 "/>
<path style=" stroke:none;fill-rule:nonzero;fill:rgb(43.921569%,46.666667%,53.72549%);fill-opacity:1;" d="M 72.929688 15.019531 L 64 15.019531 L 64 38.550781 L 72.929688 38.550781 C 75 38.550781 76.683594 36.871094 76.683594 34.796875 L 76.683594 18.773438 C 76.683594 16.703125 75 15.019531 72.929688 15.019531 Z M 72.929688 15.019531 "/>
<path style=" stroke:none;fill-rule:nonzero;fill:rgb(94.117647%,18.823529%,28.627451%);fill-opacity:1;" d="M 88.15625 60.433594 L 66.042969 46.085938 C 65.421875 45.683594 64.710938 45.480469 64 45.480469 L 64 67.339844 L 86.113281 67.339844 C 87.773438 67.339844 89.242188 66.242188 89.710938 64.648438 C 90.183594 63.054688 89.550781 61.339844 88.15625 60.433594 Z M 88.15625 60.433594 "/>
<path style=" stroke:none;fill-rule:nonzero;fill:rgb(78.039216%,45.098039%,18.039216%);fill-opacity:1;" d="M 64 75.363281 L 64 91.867188 L 67.753906 91.867188 L 67.753906 79.121094 C 67.753906 77.046875 66.074219 75.363281 64 75.363281 Z M 64 75.363281 "/>
<path style=" stroke:none;fill-rule:nonzero;fill:rgb(43.921569%,46.666667%,53.72549%);fill-opacity:1;" d="M 64 112.511719 L 64 120.375 C 66.074219 120.375 67.753906 118.695312 67.753906 116.621094 L 67.753906 116.265625 C 67.753906 114.191406 66.074219 112.511719 64 112.511719 Z M 64 112.511719 "/>
</g>
</svg>
