<?xml version="1.0" encoding="UTF-8"?>
<svg xmlns="http://www.w3.org/2000/svg" xmlns:xlink="http://www.w3.org/1999/xlink" width="16pt" height="16pt" viewBox="0 0 16 16" version="1.1">
<g id="surface1">
<path style=" stroke:none;fill-rule:nonzero;fill:rgb(86.27451%,88.235294%,92.156863%);fill-opacity:1;" d="M 14.726562 12.453125 L 1.273438 12.453125 C 1.011719 12.453125 0.804688 12.664062 0.804688 12.921875 L 0.804688 14.238281 C 0.804688 15.210938 1.59375 16 2.566406 16 L 13.433594 16 C 14.40625 16 15.195312 15.210938 15.195312 14.238281 L 15.195312 12.921875 C 15.195312 12.664062 14.988281 12.453125 14.726562 12.453125 Z M 14.726562 12.453125 "/>
<path style=" stroke:none;fill-rule:nonzero;fill:rgb(78.823529%,95.686275%,37.647059%);fill-opacity:1;" d="M 13.433594 0 L 2.566406 0 C 1.59375 0 0.804688 0.789062 0.804688 1.761719 L 0.804688 12.921875 C 0.804688 13.183594 1.011719 13.390625 1.273438 13.390625 L 14.726562 13.390625 C 14.988281 13.390625 15.195312 13.183594 15.195312 12.921875 L 15.195312 1.761719 C 15.195312 0.789062 14.40625 0 13.433594 0 Z M 13.433594 0 "/>
<path style=" stroke:none;fill-rule:nonzero;fill:rgb(63.137255%,85.882353%,13.72549%);fill-opacity:1;" d="M 13.433594 0 L 8 0 L 8 13.390625 L 15.195312 13.390625 L 15.195312 1.761719 C 15.195312 0.789062 14.40625 0 13.433594 0 Z M 13.433594 0 "/>
<path style=" stroke:none;fill-rule:nonzero;fill:rgb(56.862745%,58.823529%,66.666667%);fill-opacity:1;" d="M 8 15.046875 C 7.742188 15.046875 7.53125 14.835938 7.53125 14.578125 L 7.53125 14.53125 C 7.53125 14.273438 7.742188 14.0625 8 14.0625 C 8.257812 14.0625 8.46875 14.273438 8.46875 14.53125 L 8.46875 14.578125 C 8.46875 14.835938 8.257812 15.046875 8 15.046875 Z M 8 15.046875 "/>
<path style=" stroke:none;fill-rule:nonzero;fill:rgb(56.862745%,58.823529%,66.666667%);fill-opacity:1;" d="M 5.234375 1.878906 L 3.003906 1.878906 C 2.746094 1.878906 2.535156 2.085938 2.535156 2.347656 L 2.535156 4.347656 C 2.535156 4.609375 2.746094 4.820312 3.003906 4.820312 L 5.234375 4.820312 C 5.496094 4.820312 5.707031 4.609375 5.707031 4.347656 L 5.707031 2.347656 C 5.707031 2.085938 5.496094 1.878906 5.234375 1.878906 Z M 5.234375 1.878906 "/>
<path style=" stroke:none;fill-rule:nonzero;fill:rgb(56.862745%,58.823529%,66.666667%);fill-opacity:1;" d="M 9.117188 1.878906 L 6.882812 1.878906 C 6.625 1.878906 6.414062 2.085938 6.414062 2.347656 L 6.414062 4.347656 C 6.414062 4.609375 6.625 4.820312 6.882812 4.820312 L 9.117188 4.820312 C 9.375 4.820312 9.585938 4.609375 9.585938 4.347656 L 9.585938 2.347656 C 9.585938 2.085938 9.375 1.878906 9.117188 1.878906 Z M 9.117188 1.878906 "/>
<path style=" stroke:none;fill-rule:nonzero;fill:rgb(43.921569%,46.666667%,53.72549%);fill-opacity:1;" d="M 12.996094 1.878906 L 10.765625 1.878906 C 10.503906 1.878906 10.292969 2.085938 10.292969 2.347656 L 10.292969 4.347656 C 10.292969 4.609375 10.503906 4.820312 10.765625 4.820312 L 12.996094 4.820312 C 13.253906 4.820312 13.464844 4.609375 13.464844 4.347656 L 13.464844 2.347656 C 13.464844 2.085938 13.253906 1.878906 12.996094 1.878906 Z M 12.996094 1.878906 "/>
<path style=" stroke:none;fill-rule:nonzero;fill:rgb(4.313725%,49.803922%,69.803922%);fill-opacity:1;" d="M 0.804688 9.011719 L 15.195312 9.011719 L 15.195312 13.390625 L 0.804688 13.390625 Z M 0.804688 9.011719 "/>
<path style=" stroke:none;fill-rule:nonzero;fill:rgb(86.27451%,88.235294%,92.156863%);fill-opacity:1;" d="M 10.417969 7.949219 L 10.417969 11.015625 C 10.417969 11.273438 10.210938 11.484375 9.949219 11.484375 L 6.050781 11.484375 C 5.789062 11.484375 5.582031 11.273438 5.582031 11.015625 L 5.582031 7.949219 C 5.582031 7.6875 5.789062 7.476562 6.050781 7.476562 L 9.949219 7.476562 C 10.210938 7.476562 10.417969 7.6875 10.417969 7.949219 Z M 10.417969 7.949219 "/>
<path style=" stroke:none;fill-rule:nonzero;fill:rgb(100%,34.509804%,24.313725%);fill-opacity:1;" d="M 11.019531 7.554688 L 8.253906 5.761719 C 8.101562 5.660156 7.898438 5.660156 7.746094 5.761719 L 4.980469 7.554688 C 4.804688 7.667969 4.726562 7.882812 4.785156 8.082031 C 4.84375 8.28125 5.027344 8.417969 5.234375 8.417969 L 10.765625 8.417969 C 10.972656 8.417969 11.15625 8.28125 11.214844 8.082031 C 11.273438 7.882812 11.195312 7.667969 11.019531 7.554688 Z M 11.019531 7.554688 "/>
<path style=" stroke:none;fill-rule:nonzero;fill:rgb(86.27451%,57.647059%,29.411765%);fill-opacity:1;" d="M 8.46875 9.890625 L 8.46875 11.484375 L 7.53125 11.484375 L 7.53125 9.890625 C 7.53125 9.628906 7.742188 9.421875 8 9.421875 C 8.257812 9.421875 8.46875 9.628906 8.46875 9.890625 Z M 8.46875 9.890625 "/>
<path style=" stroke:none;fill-rule:nonzero;fill:rgb(68.627451%,70.588235%,78.431373%);fill-opacity:1;" d="M 14.726562 12.453125 L 8 12.453125 L 8 16 L 13.433594 16 C 14.40625 16 15.195312 15.210938 15.195312 14.238281 L 15.195312 12.921875 C 15.195312 12.664062 14.988281 12.453125 14.726562 12.453125 Z M 14.726562 12.453125 "/>
<path style=" stroke:none;fill-rule:nonzero;fill:rgb(3.137255%,33.333333%,51.764706%);fill-opacity:1;" d="M 8 9.011719 L 15.195312 9.011719 L 15.195312 13.390625 L 8 13.390625 Z M 8 9.011719 "/>
<path style=" stroke:none;fill-rule:nonzero;fill:rgb(68.627451%,70.588235%,78.431373%);fill-opacity:1;" d="M 9.949219 7.476562 L 8 7.476562 L 8 11.484375 L 9.949219 11.484375 C 10.210938 11.484375 10.417969 11.273438 10.417969 11.015625 L 10.417969 7.949219 C 10.417969 7.6875 10.210938 7.476562 9.949219 7.476562 Z M 9.949219 7.476562 "/>
<path style=" stroke:none;fill-rule:nonzero;fill:rgb(43.921569%,46.666667%,53.72549%);fill-opacity:1;" d="M 9.117188 1.878906 L 8 1.878906 L 8 4.820312 L 9.117188 4.820312 C 9.375 4.820312 9.585938 4.609375 9.585938 4.347656 L 9.585938 2.347656 C 9.585938 2.085938 9.375 1.878906 9.117188 1.878906 Z M 9.117188 1.878906 "/>
<path style=" stroke:none;fill-rule:nonzero;fill:rgb(94.117647%,18.823529%,28.627451%);fill-opacity:1;" d="M 11.019531 7.554688 L 8.253906 5.761719 C 8.179688 5.710938 8.089844 5.683594 8 5.683594 L 8 8.417969 L 10.765625 8.417969 C 10.972656 8.417969 11.15625 8.28125 11.214844 8.082031 C 11.273438 7.882812 11.195312 7.667969 11.019531 7.554688 Z M 11.019531 7.554688 "/>
<path style=" stroke:none;fill-rule:nonzero;fill:rgb(78.039216%,45.098039%,18.039216%);fill-opacity:1;" d="M 8 9.421875 L 8 11.484375 L 8.46875 11.484375 L 8.46875 9.890625 C 8.46875 9.628906 8.257812 9.421875 8 9.421875 Z M 8 9.421875 "/>
<path style=" stroke:none;fill-rule:nonzero;fill:rgb(43.921569%,46.666667%,53.72549%);fill-opacity:1;" d="M 8 14.0625 L 8 15.046875 C 8.257812 15.046875 8.46875 14.835938 8.46875 14.578125 L 8.46875 14.53125 C 8.46875 14.273438 8.257812 14.0625 8 14.0625 Z M 8 14.0625 "/>
</g>
</svg>
