<?xml version="1.0" encoding="UTF-8"?>
<svg xmlns="http://www.w3.org/2000/svg" xmlns:xlink="http://www.w3.org/1999/xlink" width="32pt" height="32pt" viewBox="0 0 32 32" version="1.1">
<g id="surface1">
<path style=" stroke:none;fill-rule:nonzero;fill:rgb(86.27451%,88.235294%,92.156863%);fill-opacity:1;" d="M 29.453125 24.90625 L 2.546875 24.90625 C 2.027344 24.90625 1.605469 25.328125 1.605469 25.847656 L 1.605469 28.472656 C 1.605469 30.417969 3.1875 32 5.132812 32 L 26.867188 32 C 28.8125 32 30.394531 30.417969 30.394531 28.472656 L 30.394531 25.847656 C 30.394531 25.328125 29.972656 24.90625 29.453125 24.90625 Z M 29.453125 24.90625 "/>
<path style=" stroke:none;fill-rule:nonzero;fill:rgb(78.823529%,95.686275%,37.647059%);fill-opacity:1;" d="M 26.867188 0 L 5.132812 0 C 3.1875 0 1.605469 1.582031 1.605469 3.527344 L 1.605469 25.847656 C 1.605469 26.363281 2.027344 26.785156 2.546875 26.785156 L 29.453125 26.785156 C 29.972656 26.785156 30.394531 26.363281 30.394531 25.847656 L 30.394531 3.527344 C 30.394531 1.582031 28.8125 0 26.867188 0 Z M 26.867188 0 "/>
<path style=" stroke:none;fill-rule:nonzero;fill:rgb(63.137255%,85.882353%,13.72549%);fill-opacity:1;" d="M 26.867188 0 L 16 0 L 16 26.785156 L 30.394531 26.785156 L 30.394531 3.527344 C 30.394531 1.578125 28.816406 0 26.867188 0 Z M 26.867188 0 "/>
<path style=" stroke:none;fill-rule:nonzero;fill:rgb(56.862745%,58.823529%,66.666667%);fill-opacity:1;" d="M 16 30.09375 C 15.480469 30.09375 15.0625 29.671875 15.0625 29.15625 L 15.0625 29.066406 C 15.0625 28.546875 15.480469 28.128906 16 28.128906 C 16.519531 28.128906 16.9375 28.546875 16.9375 29.066406 L 16.9375 29.15625 C 16.9375 29.671875 16.519531 30.09375 16 30.09375 Z M 16 30.09375 "/>
<path style=" stroke:none;fill-rule:nonzero;fill:rgb(56.862745%,58.823529%,66.666667%);fill-opacity:1;" d="M 10.472656 3.753906 L 6.007812 3.753906 C 5.488281 3.753906 5.070312 4.175781 5.070312 4.695312 L 5.070312 8.699219 C 5.070312 9.21875 5.488281 9.636719 6.007812 9.636719 L 10.472656 9.636719 C 10.992188 9.636719 11.410156 9.21875 11.410156 8.699219 L 11.410156 4.695312 C 11.410156 4.175781 10.992188 3.753906 10.472656 3.753906 Z M 10.472656 3.753906 "/>
<path style=" stroke:none;fill-rule:nonzero;fill:rgb(56.862745%,58.823529%,66.666667%);fill-opacity:1;" d="M 18.230469 3.753906 L 13.769531 3.753906 C 13.25 3.753906 12.828125 4.175781 12.828125 4.695312 L 12.828125 8.699219 C 12.828125 9.21875 13.25 9.636719 13.769531 9.636719 L 18.230469 9.636719 C 18.75 9.636719 19.171875 9.21875 19.171875 8.699219 L 19.171875 4.695312 C 19.171875 4.175781 18.75 3.753906 18.230469 3.753906 Z M 18.230469 3.753906 "/>
<path style=" stroke:none;fill-rule:nonzero;fill:rgb(43.921569%,46.666667%,53.72549%);fill-opacity:1;" d="M 25.992188 3.753906 L 21.527344 3.753906 C 21.007812 3.753906 20.589844 4.175781 20.589844 4.695312 L 20.589844 8.699219 C 20.589844 9.21875 21.007812 9.636719 21.527344 9.636719 L 25.992188 9.636719 C 26.511719 9.636719 26.929688 9.21875 26.929688 8.699219 L 26.929688 4.695312 C 26.929688 4.175781 26.511719 3.753906 25.992188 3.753906 Z M 25.992188 3.753906 "/>
<path style=" stroke:none;fill-rule:nonzero;fill:rgb(4.313725%,49.803922%,69.803922%);fill-opacity:1;" d="M 1.605469 18.023438 L 30.394531 18.023438 L 30.394531 26.785156 L 1.605469 26.785156 Z M 1.605469 18.023438 "/>
<path style=" stroke:none;fill-rule:nonzero;fill:rgb(86.27451%,88.235294%,92.156863%);fill-opacity:1;" d="M 20.839844 15.894531 L 20.839844 22.027344 C 20.839844 22.546875 20.417969 22.96875 19.902344 22.96875 L 12.097656 22.96875 C 11.582031 22.96875 11.160156 22.546875 11.160156 22.027344 L 11.160156 15.894531 C 11.160156 15.378906 11.582031 14.957031 12.097656 14.957031 L 19.902344 14.957031 C 20.417969 14.957031 20.839844 15.378906 20.839844 15.894531 Z M 20.839844 15.894531 "/>
<path style=" stroke:none;fill-rule:nonzero;fill:rgb(100%,34.509804%,24.313725%);fill-opacity:1;" d="M 22.039062 15.109375 L 16.511719 11.523438 C 16.199219 11.320312 15.800781 11.320312 15.488281 11.523438 L 9.960938 15.109375 C 9.613281 15.335938 9.453125 15.761719 9.570312 16.164062 C 9.691406 16.5625 10.054688 16.835938 10.472656 16.835938 L 21.527344 16.835938 C 21.945312 16.835938 22.308594 16.5625 22.429688 16.164062 C 22.546875 15.761719 22.386719 15.335938 22.039062 15.109375 Z M 22.039062 15.109375 "/>
<path style=" stroke:none;fill-rule:nonzero;fill:rgb(86.27451%,57.647059%,29.411765%);fill-opacity:1;" d="M 16.9375 19.78125 L 16.9375 22.96875 L 15.0625 22.96875 L 15.0625 19.78125 C 15.0625 19.261719 15.480469 18.839844 16 18.839844 C 16.519531 18.839844 16.9375 19.261719 16.9375 19.78125 Z M 16.9375 19.78125 "/>
<path style=" stroke:none;fill-rule:nonzero;fill:rgb(68.627451%,70.588235%,78.431373%);fill-opacity:1;" d="M 29.453125 24.90625 L 16 24.90625 L 16 32 L 26.867188 32 C 28.8125 32 30.394531 30.417969 30.394531 28.472656 L 30.394531 25.847656 C 30.394531 25.328125 29.972656 24.90625 29.453125 24.90625 Z M 29.453125 24.90625 "/>
<path style=" stroke:none;fill-rule:nonzero;fill:rgb(3.137255%,33.333333%,51.764706%);fill-opacity:1;" d="M 16 18.023438 L 30.394531 18.023438 L 30.394531 26.785156 L 16 26.785156 Z M 16 18.023438 "/>
<path style=" stroke:none;fill-rule:nonzero;fill:rgb(68.627451%,70.588235%,78.431373%);fill-opacity:1;" d="M 19.902344 14.957031 L 16 14.957031 L 16 22.96875 L 19.902344 22.96875 C 20.417969 22.96875 20.839844 22.546875 20.839844 22.027344 L 20.839844 15.894531 C 20.839844 15.378906 20.417969 14.957031 19.902344 14.957031 Z M 19.902344 14.957031 "/>
<path style=" stroke:none;fill-rule:nonzero;fill:rgb(43.921569%,46.666667%,53.72549%);fill-opacity:1;" d="M 18.230469 3.753906 L 16 3.753906 L 16 9.636719 L 18.230469 9.636719 C 18.75 9.636719 19.171875 9.21875 19.171875 8.699219 L 19.171875 4.695312 C 19.171875 4.175781 18.75 3.753906 18.230469 3.753906 Z M 18.230469 3.753906 "/>
<path style=" stroke:none;fill-rule:nonzero;fill:rgb(94.117647%,18.823529%,28.627451%);fill-opacity:1;" d="M 22.039062 15.109375 L 16.511719 11.523438 C 16.355469 11.421875 16.179688 11.371094 16 11.371094 L 16 16.835938 L 21.527344 16.835938 C 21.945312 16.835938 22.308594 16.5625 22.429688 16.164062 C 22.546875 15.761719 22.386719 15.335938 22.039062 15.109375 Z M 22.039062 15.109375 "/>
<path style=" stroke:none;fill-rule:nonzero;fill:rgb(78.039216%,45.098039%,18.039216%);fill-opacity:1;" d="M 16 18.839844 L 16 22.96875 L 16.9375 22.96875 L 16.9375 19.78125 C 16.9375 19.261719 16.519531 18.839844 16 18.839844 Z M 16 18.839844 "/>
<path style=" stroke:none;fill-rule:nonzero;fill:rgb(43.921569%,46.666667%,53.72549%);fill-opacity:1;" d="M 16 28.128906 L 16 30.09375 C 16.519531 30.09375 16.9375 29.671875 16.9375 29.15625 L 16.9375 29.066406 C 16.9375 28.546875 16.519531 28.128906 16 28.128906 Z M 16 28.128906 "/>
</g>
</svg>
