<?xml version="1.0" encoding="UTF-8"?>
<svg xmlns="http://www.w3.org/2000/svg" xmlns:xlink="http://www.w3.org/1999/xlink" width="64pt" height="64pt" viewBox="0 0 64 64" version="1.1">
<g id="surface1">
<path style=" stroke:none;fill-rule:nonzero;fill:rgb(86.27451%,88.235294%,92.156863%);fill-opacity:1;" d="M 58.910156 49.8125 L 5.089844 49.8125 C 4.054688 49.8125 3.214844 50.65625 3.214844 51.691406 L 3.214844 56.949219 C 3.214844 60.835938 6.375 64 10.261719 64 L 53.738281 64 C 57.625 64 60.785156 60.835938 60.785156 56.949219 L 60.785156 51.691406 C 60.785156 50.65625 59.945312 49.8125 58.910156 49.8125 Z M 58.910156 49.8125 "/>
<path style=" stroke:none;fill-rule:nonzero;fill:rgb(78.823529%,95.686275%,37.647059%);fill-opacity:1;" d="M 53.738281 0 L 10.261719 0 C 6.375 0 3.214844 3.164062 3.214844 7.050781 L 3.214844 51.691406 C 3.214844 52.726562 4.054688 53.570312 5.089844 53.570312 L 58.910156 53.570312 C 59.945312 53.570312 60.785156 52.726562 60.785156 51.691406 L 60.785156 7.050781 C 60.785156 3.164062 57.625 0 53.738281 0 Z M 53.738281 0 "/>
<path style=" stroke:none;fill-rule:nonzero;fill:rgb(63.137255%,85.882353%,13.72549%);fill-opacity:1;" d="M 53.734375 0 L 32 0 L 32 53.570312 L 60.785156 53.570312 L 60.785156 7.050781 C 60.785156 3.15625 57.628906 0 53.734375 0 Z M 53.734375 0 "/>
<path style=" stroke:none;fill-rule:nonzero;fill:rgb(56.862745%,58.823529%,66.666667%);fill-opacity:1;" d="M 32 60.1875 C 30.964844 60.1875 30.121094 59.347656 30.121094 58.308594 L 30.121094 58.132812 C 30.121094 57.097656 30.964844 56.253906 32 56.253906 C 33.035156 56.253906 33.878906 57.097656 33.878906 58.132812 L 33.878906 58.308594 C 33.878906 59.347656 33.035156 60.1875 32 60.1875 Z M 32 60.1875 "/>
<path style=" stroke:none;fill-rule:nonzero;fill:rgb(56.862745%,58.823529%,66.666667%);fill-opacity:1;" d="M 20.945312 7.511719 L 12.015625 7.511719 C 10.980469 7.511719 10.136719 8.351562 10.136719 9.386719 L 10.136719 17.398438 C 10.136719 18.433594 10.980469 19.273438 12.015625 19.273438 L 20.945312 19.273438 C 21.980469 19.273438 22.820312 18.433594 22.820312 17.398438 L 22.820312 9.386719 C 22.820312 8.351562 21.980469 7.511719 20.945312 7.511719 Z M 20.945312 7.511719 "/>
<path style=" stroke:none;fill-rule:nonzero;fill:rgb(56.862745%,58.823529%,66.666667%);fill-opacity:1;" d="M 36.464844 7.511719 L 27.535156 7.511719 C 26.5 7.511719 25.660156 8.351562 25.660156 9.386719 L 25.660156 17.398438 C 25.660156 18.433594 26.5 19.273438 27.535156 19.273438 L 36.464844 19.273438 C 37.5 19.273438 38.339844 18.433594 38.339844 17.398438 L 38.339844 9.386719 C 38.339844 8.351562 37.5 7.511719 36.464844 7.511719 Z M 36.464844 7.511719 "/>
<path style=" stroke:none;fill-rule:nonzero;fill:rgb(43.921569%,46.666667%,53.72549%);fill-opacity:1;" d="M 51.984375 7.511719 L 43.054688 7.511719 C 42.019531 7.511719 41.179688 8.351562 41.179688 9.386719 L 41.179688 17.398438 C 41.179688 18.433594 42.019531 19.273438 43.054688 19.273438 L 51.984375 19.273438 C 53.019531 19.273438 53.863281 18.433594 53.863281 17.398438 L 53.863281 9.386719 C 53.863281 8.351562 53.019531 7.511719 51.984375 7.511719 Z M 51.984375 7.511719 "/>
<path style=" stroke:none;fill-rule:nonzero;fill:rgb(4.313725%,49.803922%,69.803922%);fill-opacity:1;" d="M 3.214844 36.046875 L 60.785156 36.046875 L 60.785156 53.570312 L 3.214844 53.570312 Z M 3.214844 36.046875 "/>
<path style=" stroke:none;fill-rule:nonzero;fill:rgb(86.27451%,88.235294%,92.156863%);fill-opacity:1;" d="M 41.679688 31.789062 L 41.679688 44.058594 C 41.679688 45.09375 40.839844 45.933594 39.800781 45.933594 L 24.199219 45.933594 C 23.160156 45.933594 22.320312 45.09375 22.320312 44.058594 L 22.320312 31.789062 C 22.320312 30.753906 23.160156 29.914062 24.199219 29.914062 L 39.800781 29.914062 C 40.839844 29.914062 41.679688 30.753906 41.679688 31.789062 Z M 41.679688 31.789062 "/>
<path style=" stroke:none;fill-rule:nonzero;fill:rgb(100%,34.509804%,24.313725%);fill-opacity:1;" d="M 44.078125 30.214844 L 33.023438 23.042969 C 32.398438 22.640625 31.601562 22.640625 30.976562 23.042969 L 19.921875 30.214844 C 19.226562 30.667969 18.90625 31.527344 19.144531 32.324219 C 19.378906 33.121094 20.113281 33.667969 20.945312 33.667969 L 43.054688 33.667969 C 43.886719 33.667969 44.621094 33.121094 44.855469 32.324219 C 45.09375 31.527344 44.773438 30.667969 44.078125 30.214844 Z M 44.078125 30.214844 "/>
<path style=" stroke:none;fill-rule:nonzero;fill:rgb(86.27451%,57.647059%,29.411765%);fill-opacity:1;" d="M 33.878906 39.558594 L 33.878906 45.933594 L 30.121094 45.933594 L 30.121094 39.558594 C 30.121094 38.523438 30.964844 37.683594 32 37.683594 C 33.035156 37.683594 33.878906 38.523438 33.878906 39.558594 Z M 33.878906 39.558594 "/>
<path style=" stroke:none;fill-rule:nonzero;fill:rgb(68.627451%,70.588235%,78.431373%);fill-opacity:1;" d="M 58.910156 49.8125 L 32 49.8125 L 32 64 L 53.738281 64 C 57.625 64 60.785156 60.835938 60.785156 56.949219 L 60.785156 51.691406 C 60.785156 50.65625 59.945312 49.8125 58.910156 49.8125 Z M 58.910156 49.8125 "/>
<path style=" stroke:none;fill-rule:nonzero;fill:rgb(3.137255%,33.333333%,51.764706%);fill-opacity:1;" d="M 32 36.046875 L 60.785156 36.046875 L 60.785156 53.570312 L 32 53.570312 Z M 32 36.046875 "/>
<path style=" stroke:none;fill-rule:nonzero;fill:rgb(68.627451%,70.588235%,78.431373%);fill-opacity:1;" d="M 39.800781 29.914062 L 32 29.914062 L 32 45.933594 L 39.800781 45.933594 C 40.839844 45.933594 41.679688 45.09375 41.679688 44.058594 L 41.679688 31.789062 C 41.679688 30.753906 40.839844 29.914062 39.800781 29.914062 Z M 39.800781 29.914062 "/>
<path style=" stroke:none;fill-rule:nonzero;fill:rgb(43.921569%,46.666667%,53.72549%);fill-opacity:1;" d="M 36.464844 7.511719 L 32 7.511719 L 32 19.273438 L 36.464844 19.273438 C 37.5 19.273438 38.339844 18.433594 38.339844 17.398438 L 38.339844 9.386719 C 38.339844 8.351562 37.5 7.511719 36.464844 7.511719 Z M 36.464844 7.511719 "/>
<path style=" stroke:none;fill-rule:nonzero;fill:rgb(94.117647%,18.823529%,28.627451%);fill-opacity:1;" d="M 44.078125 30.214844 L 33.023438 23.042969 C 32.710938 22.84375 32.355469 22.742188 32 22.742188 L 32 33.667969 L 43.054688 33.667969 C 43.886719 33.667969 44.621094 33.121094 44.855469 32.324219 C 45.09375 31.527344 44.773438 30.667969 44.078125 30.214844 Z M 44.078125 30.214844 "/>
<path style=" stroke:none;fill-rule:nonzero;fill:rgb(78.039216%,45.098039%,18.039216%);fill-opacity:1;" d="M 32 37.683594 L 32 45.933594 L 33.878906 45.933594 L 33.878906 39.558594 C 33.878906 38.523438 33.035156 37.683594 32 37.683594 Z M 32 37.683594 "/>
<path style=" stroke:none;fill-rule:nonzero;fill:rgb(43.921569%,46.666667%,53.72549%);fill-opacity:1;" d="M 32 56.253906 L 32 60.1875 C 33.035156 60.1875 33.878906 59.347656 33.878906 58.308594 L 33.878906 58.132812 C 33.878906 57.097656 33.035156 56.253906 32 56.253906 Z M 32 56.253906 "/>
</g>
</svg>
